inDegrees=no
num_controls=7
num_derivatives=13
num_iterations=168
num_multipliers=7
num_parameters=0
num_slacks=7
num_states=26
objective=0.500310
objective_accelerations=0.037074
objective_balance=0.003337
objective_effort=0.036249
objective_height=0.417573
objective_ligament=0.006077
solver_duration=1940.974187
status=Solve_Succeeded
success=true
DataType=double
version=3
OpenSimVersion=4.5
endheader
time	/jointset/ground_pelvis/pelvis_tilt/value	/jointset/ground_pelvis/pelvis_tx/value	/jointset/ground_pelvis/pelvis_ty/value	/jointset/hip_r/hip_flexion_r/value	/jointset/hip_r/hip_adduction_r/value	/jointset/hip_r/hip_rotation_r/value	/jointset/back/lumbar_extension/value	/jointset/patellofemoral_r/patellar_flexion_r/value	/jointset/knee_r/knee_flexion_r/value	/jointset/knee_r/knee_adduction_r/value	/jointset/knee_r/knee_rotation_r/value	/jointset/ankle_r/ankle_angle_r/value	/jointset/subtalar_r/subtalar_angle_r/value	/jointset/ground_pelvis/pelvis_tilt/speed	/jointset/ground_pelvis/pelvis_tx/speed	/jointset/ground_pelvis/pelvis_ty/speed	/jointset/hip_r/hip_flexion_r/speed	/jointset/hip_r/hip_adduction_r/speed	/jointset/hip_r/hip_rotation_r/speed	/jointset/back/lumbar_extension/speed	/jointset/patellofemoral_r/patellar_flexion_r/speed	/jointset/knee_r/knee_flexion_r/speed	/jointset/knee_r/knee_adduction_r/speed	/jointset/knee_r/knee_rotation_r/speed	/jointset/ankle_r/ankle_angle_r/speed	/jointset/subtalar_r/subtalar_angle_r/speed	/forceset/tau_hip_flexion_r	/forceset/tau_hip_adduction_r	/forceset/tau_hip_rotation_r	/forceset/tau_knee_flexion_r	/forceset/tau_ankle_angle_r	/forceset/tau_subtalar_angle_r	/forceset/tau_lumbar_extension	lambda_cid13_p0	lambda_cid14_p0	lambda_cid14_p1	lambda_cid14_p2	lambda_cid14_p3	lambda_cid14_p4	lambda_cid14_p5	/jointset/ground_pelvis/pelvis_tilt/accel	/jointset/ground_pelvis/pelvis_tx/accel	/jointset/ground_pelvis/pelvis_ty/accel	/jointset/hip_r/hip_flexion_r/accel	/jointset/hip_r/hip_adduction_r/accel	/jointset/hip_r/hip_rotation_r/accel	/jointset/back/lumbar_extension/accel	/jointset/patellofemoral_r/patellar_flexion_r/accel	/jointset/knee_r/knee_flexion_r/accel	/jointset/knee_r/knee_adduction_r/accel	/jointset/knee_r/knee_rotation_r/accel	/jointset/ankle_r/ankle_angle_r/accel	/jointset/subtalar_r/subtalar_angle_r/accel	gamma_cid13_p0	gamma_cid14_p0	gamma_cid14_p1	gamma_cid14_p2	gamma_cid14_p3	gamma_cid14_p4	gamma_cid14_p5
0	-0.00651527261232428	0.0962602392359667	0.9427240929802058	0.1762555222360518	-0.2321525145280456	-0.261640515086095	-0.038598046466844	0.07317863873451479	0.07317863873451017	0.174532376763091	0.1745327248673244	0.03247278518263602	-0.003451789866717233	0	0	0	0	0	0	0	0	0	0	0	0	0	0.2323882416980343	-0.1867170646476796	-0.04882272642995931	-0.4377686001428627	0.4585473240167076	-0.1402560894039002	-0.1234346512650884	-39.07632805208932	98.00045974178664	-34.07311665687873	-5.165798404550361	-53.21944028205377	-679.5025621967278	69.91947812535628	-1.466462643576367	-0.574395108722217	-0.5153754856262589	7.307973734249351	-0.02195518781656844	2.38949661751512	-4.586193241409001	8.612567508764384	8.612567508763687	-2.273801121927833	0.1328422300934507	3.479511098603066	0.7575064085341456	7.416732112068263e-08	1.994264971074009e-08	-5.644834875722906e-07	1.620368448686445e-07	4.430847748920655e-08	-2.343864655403193e-08	-2.944213176385333e-07
0.01	-0.006582568232192406	0.09623108115735918	0.9426993285321029	0.1766090084029631	-0.2321525289806946	-0.2615142516019678	-0.03882959386636516	0.07359715550592995	0.07359715550592179	0.174418930991687	0.1745290781670878	0.03264169937392239	-0.003414025855593604	-0.01335637305733011	-0.005902047214959788	-0.004943798434961131	0.07045334839509625	-3.768805972707116e-05	0.02511124412620833	-0.04603091884682681	0.08335100686666733	0.08335100686665818	-0.02250913923685832	-0.0006990388476714566	0.03350888764355475	0.007453951999819412	0.223223558866471	-0.1918782881160687	-0.0460857738503334	-0.4218646906317394	0.4318952672957779	-0.1265461660029248	-0.116702735027494	-39.09026485836696	89.90987264117783	-29.58045346938337	-5.830704375465588	-47.24508856105773	-679.6770505447455	77.68362082338494	-1.254809060297802	-0.6086653904214487	-0.4825230323171211	6.877434563015793	5.002086187073191e-05	2.550761085985415	-4.569757047542359	8.143500329917211	8.143500329916177	-2.212538352743668	-0.1666831941030309	3.245495571973174	0.7244423076676575	1.011976059159162e-07	1.943731149155838e-08	-7.656539814677489e-07	1.58988344326853e-07	6.814317926868856e-08	-1.506877963785649e-07	-3.48512058671564e-07
0.02	-0.006780344467334866	0.09614079143409412	0.9426253978976731	0.1776597118880011	-0.2321539751867589	-0.2611411111214193	-0.03951309362259942	0.07483860895686154	0.07483860895686187	0.174085780222295	0.1745193598280394	0.03313748603659185	-0.003304701782079371	-0.02609612305410107	-0.01222632893150992	-0.009833237265417868	0.1394434636252313	-0.0002863506829509895	0.04937539928488148	-0.09039047134255465	0.1645873359053066	0.1645873359052883	-0.0439409996008685	-0.001214327771564595	0.06537449427676782	0.01431201247811036	0.2140588760349369	-0.1970395115844509	-0.04334882127061372	-0.4059607811206207	0.405243210574853	-0.112836242601942	-0.1099708187898782	-39.13160791220695	81.89428208964888	-25.09278535734382	-6.474109000549752	-41.46809237468645	-678.7346850107929	85.24590123149248	-1.343138031464447	-0.6588420090403622	-0.5045035647253793	7.015327101257107	-0.06415010051596445	2.220078824008012	-4.25191997118915	8.189631943158806	8.1896319431581	-2.05834534735815	0.1695922148491935	3.150854896534637	0.6383281042284021	1.282278907111497e-07	1.893197327237665e-08	-9.668244753632073e-07	1.559398437850615e-07	9.197788104817058e-08	-2.779369462030979e-07	-4.026027997045948e-07
0.03	-0.007102999178043015	0.09598597057821021	0.9425026586510701	0.1793928025098281	-0.2321591192345629	-0.2605308596673203	-0.04063140820617568	0.07688245540625058	0.07688245540625817	0.1735441984573596	0.1745066862954874	0.03394482512569214	-0.003129656222607581	-0.03835489958698787	-0.01872475697552645	-0.01471746723410011	0.2068553006001184	-0.0007802090443303835	0.07255041854287364	-0.1329857924884784	0.2438288697045374	0.2438288697045388	-0.06416975743485688	-0.001320693498359182	0.09592036942225568	0.0206191841991911	0.2076804917353294	-0.1934136056702125	-0.04160083230245147	-0.397415537834001	0.3923547830271931	-0.110535057870669	-0.1050181454538103	-39.19938059341179	77.86836770107408	-24.83383096700769	-6.474796623016322	-38.80022088580798	-678.3054138001568	84.69745579289217	-1.155249879000552	-0.6433619199497319	-0.4808670912993407	6.556211664656614	-0.04777763164217901	2.347591870242324	-4.220340253501336	7.738425703341256	7.738425703344913	-1.974437688771512	-0.1007346877277002	2.980533059412715	0.6150899662436425	1.40953039707304e-07	1.366583472647427e-08	-1.065865243854398e-06	1.478891290158603e-07	1.088411562028936e-07	-3.806731462271189e-07	-4.29534458010424e-07
